<svg width="1163" height="749" viewBox="0 0 1163 749" fill="none" xmlns="http://www.w3.org/2000/svg">
<path fill-rule="evenodd" clip-rule="evenodd" d="M876.488 738.53L391.785 748.289V692.211L857 721.111L876.488 738.53Z" fill="url(#paint0_linear_0_1643)" fill-opacity="0.12" style="mix-blend-mode:multiply"/>
<path fill-rule="evenodd" clip-rule="evenodd" d="M485.483 737.53L0.780029 747.289V691.211L465.995 720.111L485.483 737.53Z" fill="url(#paint1_linear_0_1643)" fill-opacity="0.12" style="mix-blend-mode:multiply"/>
<path d="M679.573 329.217C745.724 359.55 777.67 367.468 806.908 366.721L811.248 344.392C793.819 343.571 763.81 329.666 705.817 287.165L679.573 329.217Z" fill="#3E3961"/>
<path fill-rule="evenodd" clip-rule="evenodd" d="M767 353.415C767 351.319 768.618 349.578 770.708 349.425L849 343.697V369.697L770.612 362.049C768.563 361.849 767 360.127 767 358.068V353.415Z" fill="#4F5B71"/>
<rect x="843.333" y="363.956" width="13.7143" height="6.2963" rx="3.14815" transform="rotate(107 843.333 363.956)" fill="#CACACA"/>
<rect x="837.788" y="363.561" width="13.7143" height="6.2963" rx="3.14815" transform="rotate(107 837.788 363.561)" fill="#CACACA"/>
<rect x="832.243" y="363.165" width="13.7143" height="6.2963" rx="3.14815" transform="rotate(107 832.243 363.165)" fill="#CACACA"/>
<rect x="826.698" y="362.77" width="13.7143" height="6.2963" rx="3.14815" transform="rotate(107 826.698 362.77)" fill="#CACACA"/>
<path fill-rule="evenodd" clip-rule="evenodd" d="M847 342.82C847 340.846 848.44 339.167 850.391 338.867L869 336V376L850.391 373.133C848.44 372.833 847 371.154 847 369.18V342.82Z" fill="#606C83"/>
<ellipse cx="870" cy="356.3" rx="9" ry="22.3" fill="white"/>
<path fill-rule="evenodd" clip-rule="evenodd" d="M1162.65 238.117L869.407 334.033V378.829L1162.65 485.509" fill="url(#paint2_linear_0_1643)"/>
<g opacity="0.4" filter="url(#filter0_d_0_1643)">
<circle cx="1048" cy="309" r="1" fill="white"/>
</g>
<g filter="url(#filter1_d_0_1643)">
<circle cx="1034" cy="351" r="1" fill="white"/>
</g>
<g opacity="0.4" filter="url(#filter2_d_0_1643)">
<circle cx="1084" cy="377" r="1" fill="white"/>
</g>
<g filter="url(#filter3_d_0_1643)">
<circle cx="974" cy="329" r="1" fill="white"/>
</g>
<g opacity="0.5" filter="url(#filter4_d_0_1643)">
<ellipse cx="983" cy="379" rx="2" ry="1" fill="white"/>
</g>
<g filter="url(#filter5_d_0_1643)">
<ellipse cx="1131" cy="337" rx="2" ry="1" fill="white"/>
</g>
<g opacity="0.2" filter="url(#filter6_d_0_1643)">
<circle cx="1127" cy="430" r="2" fill="white"/>
</g>
<g filter="url(#filter7_d_0_1643)">
<circle cx="933" cy="354" r="2" fill="white"/>
</g>
<path fill-rule="evenodd" clip-rule="evenodd" d="M445.637 681.08C443.031 686.934 447.303 699.101 454.725 704.443C462.147 709.784 461.859 697.809 482.168 707.003C502.477 716.196 483.691 737.996 483.691 737.996C483.691 737.996 464.442 732.871 449.199 726.084C433.955 719.297 419.712 709.51 419.712 709.51C419.712 709.51 412.185 695.161 416.783 687.55C421.38 679.938 424.969 671.878 424.969 671.878C424.969 671.878 437.41 677.417 445.637 681.08Z" fill="#1A1825"/>
<path fill-rule="evenodd" clip-rule="evenodd" d="M817.204 700.9C817.204 707.308 826.945 712.133 836.112 713.995C845.279 715.856 855.875 708.908 870.223 709.995C884.57 711.081 876.497 737.417 876.497 737.417H804.795C804.795 737.417 791.78 727.369 792.91 718.546C794.041 709.723 794.041 700.9 794.041 700.9C794.041 700.9 807.984 700.9 817.204 700.9Z" fill="#1A1825"/>
<path d="M529.463 360.976C526.503 381.634 528.942 388.471 530.317 409.95C535.678 493.692 527.349 517.238 507.183 532.568C470.383 560.545 429.038 615.49 420.283 681.847L446.945 686.07C453.944 633.025 545.154 574.986 568.454 557.272C597.51 520.586 640.128 449.807 671.716 410.311L529.463 360.976Z" fill="#1F1C2F"/>
<mask id="mask0_0_1643" style="mask-type:luminance" maskUnits="userSpaceOnUse" x="420" y="360" width="252" height="327">
<path d="M529.463 360.976C526.503 381.634 528.942 388.471 530.317 409.95C535.678 493.692 527.349 517.238 507.183 532.568C470.383 560.545 429.038 615.49 420.283 681.847L446.945 686.07C453.944 633.025 545.154 574.986 568.454 557.272C597.51 520.586 640.128 449.807 671.716 410.311L529.463 360.976Z" fill="white"/>
</mask>
<g mask="url(#mask0_0_1643)">
<g opacity="0.10094">
<path fill-rule="evenodd" clip-rule="evenodd" d="M603.756 450.482C603.756 477.347 572.165 545.58 569.052 551.129C565.938 556.679 638.589 462.956 638.589 462.956C638.589 462.956 603.756 423.617 603.756 450.482Z" fill="#221F33" style="mix-blend-mode:multiply"/>
</g>
</g>
<path d="M755.938 544.162C758.103 551.978 760.539 569.425 762.228 584.825C765.781 617.217 780.814 653.059 792.766 704H821C820.46 640.576 814.532 591.985 814.532 557.159C814.532 518.725 814.532 499.716 786.333 480.278C779.128 475.312 717.662 415.13 692.458 404.358C674.186 396.548 659.246 404.619 647.657 397.779C647.657 397.779 563.047 387.101 540.876 384.02C534.494 383.133 549.069 414.38 573.047 434.592C597.026 454.805 623.847 465.75 689.61 500.808C720.54 517.297 748.893 537.141 754.735 540.287C755.104 541.328 755.513 542.627 755.938 544.162Z" fill="url(#paint3_linear_0_1643)"/>
<path fill-rule="evenodd" clip-rule="evenodd" d="M515 378.902L695.49 403.917C695.49 403.917 676.744 276.259 791.194 221.927C803.374 216.144 814.163 199.654 800.312 182.136C756.815 131.422 738.494 127.746 723.352 130.134C559.557 221.177 515 378.902 515 378.902Z" fill="#484271"/>
<mask id="mask1_0_1643" style="mask-type:luminance" maskUnits="userSpaceOnUse" x="515" y="129" width="292" height="275">
<path fill-rule="evenodd" clip-rule="evenodd" d="M515 378.902L695.49 403.917C695.49 403.917 676.744 276.259 791.194 221.927C803.374 216.144 814.163 199.654 800.312 182.136C756.815 131.422 738.494 127.746 723.352 130.134C559.557 221.177 515 378.902 515 378.902Z" fill="white"/>
</mask>
<g mask="url(#mask1_0_1643)">
<path d="M516.815 327.634C516.815 327.634 569.189 346.507 712.025 365.38" stroke="white" stroke-opacity="0.215806" stroke-width="6"/>
<path d="M553.225 273.649C553.225 273.649 567.958 289.003 713.388 329.064" stroke="white" stroke-opacity="0.215806" stroke-width="6"/>
<path d="M579.797 231.319C579.797 231.319 688.82 286.215 724.63 286.661" stroke="white" stroke-opacity="0.215806" stroke-width="6"/>
<path d="M653.101 183.088C653.101 183.088 728.779 263.704 763.625 263.568" stroke="white" stroke-opacity="0.215806" stroke-width="6"/>
<path d="M727.1 185.097C727.1 185.097 802.778 265.713 837.624 265.577" stroke="white" stroke-opacity="0.215806" stroke-width="6"/>
</g>
<path d="M807.013 195.187L705.043 192.75L768.527 327.7C768.527 327.7 781.407 346.541 790.673 354.155C803.684 364.846 810.95 362.68 821.202 353.597C835.021 341.354 841.941 320.33 870.476 237.836L847.413 228.75C837.25 259.096 820.242 271.303 811.747 291.561C808.17 300.091 815.734 309.785 813.078 315.009C813.078 315.009 800.066 274.661 801.986 242.625C803.19 222.529 807.013 195.187 807.013 195.187Z" fill="url(#paint4_linear_0_1643)"/>
<mask id="mask2_0_1643" style="mask-type:luminance" maskUnits="userSpaceOnUse" x="705" y="192" width="166" height="170">
<path d="M807.013 195.187L705.043 192.75L768.527 327.7C768.527 327.7 781.407 346.541 790.673 354.155C803.684 364.846 810.95 362.68 821.202 353.597C835.021 341.354 841.941 320.33 870.476 237.836L847.413 228.75C837.25 259.096 820.242 271.303 811.747 291.561C808.17 300.091 815.734 309.785 813.078 315.009C813.078 315.009 800.066 274.661 801.986 242.625C803.19 222.529 807.013 195.187 807.013 195.187Z" fill="white"/>
</mask>
<g mask="url(#mask2_0_1643)">
<path d="M747.106 308.501C750.399 292.452 780.004 252.489 808.159 248.286" stroke="white" stroke-opacity="0.215806" stroke-width="6"/>
<path d="M732.144 265.525C732.144 244.136 751.148 193.013 881.124 183.262" stroke="white" stroke-opacity="0.215806" stroke-width="6"/>
<path d="M755.888 353.101C761.702 340.632 790.455 307.946 811.674 298.954" stroke="white" stroke-opacity="0.215806" stroke-width="6"/>
<path d="M841.681 367.498C831.953 357.769 811.072 319.572 809.88 296.557" stroke="white" stroke-opacity="0.215806" stroke-width="6"/>
<path d="M861.554 319.298C850.042 311.912 814.68 288.607 814.006 275.605" stroke="white" stroke-opacity="0.215806" stroke-width="6"/>
<path d="M889.913 262.363C870.569 274.925 833.145 256.806 829.232 247.538" stroke="white" stroke-opacity="0.215806" stroke-width="6"/>
</g>
<path fill-rule="evenodd" clip-rule="evenodd" d="M856.85 54.9174L880.062 94.0468H868.456L856.85 133.508L807.597 110.881L784.028 135.309L750.332 109.146L764.241 94.0468V62.9256L780.738 39.8831L856.85 54.9174Z" fill="white"/>
<path fill-rule="evenodd" clip-rule="evenodd" d="M762.489 83.4536L784.255 96.0629L791.522 83.4536C791.522 83.4536 775.029 70.4655 786.291 58.1347C797.554 45.8038 762.489 50.812 762.489 50.812V83.4536Z" fill="#C05555"/>
<path fill-rule="evenodd" clip-rule="evenodd" d="M801.178 51.773L814.767 78.2453L874.348 83.6493L867.938 71.0002L847.027 68.2586L866.263 67.347L853.454 46.0895L801.178 51.773Z" fill="#484271"/>
<path fill-rule="evenodd" clip-rule="evenodd" d="M793.27 5.09126C776.579 2.44753 760.904 13.8358 758.26 30.5276L757.693 34.1082L758.581 34.2611L756.047 50.2614L914.458 75.3513L885.238 52.4854L884.882 52.4291L853.776 20.7568C849.182 16.079 843.207 13.0004 836.731 11.9748L793.27 5.09126Z" fill="#232130"/>
<ellipse cx="694.334" cy="161.94" rx="150.175" ry="90.3979" transform="rotate(-10 694.334 161.94)" fill="url(#paint5_radial_0_1643)"/>
<path fill-rule="evenodd" clip-rule="evenodd" d="M828.881 200.47C829.67 203.107 833.228 212.721 834.938 214.135C836.648 215.55 845.626 222.871 845.626 222.871L847.663 227.819L865.807 235.315L869.395 221.209C869.395 221.209 868.189 207.062 864.869 199.01C861.549 190.958 852.506 178.424 852.506 178.424C852.506 178.424 851.177 176.395 850.989 176.431C847.225 177.14 846.543 178.254 845.806 178.642C845.427 178.841 846.812 180.897 846.576 180.97C846.233 181.077 845.168 179.075 844.915 179.157C842.572 179.915 840.606 180.719 840.303 181.112C840.001 181.506 841.604 183.328 841.16 183.551C840.589 183.839 840.236 181.585 839.485 181.665C838.734 181.744 835.021 183.293 834.692 183.804C834.364 184.315 835.829 185.754 835.468 185.888C834.725 186.166 834.13 184.369 833.437 184.384C832.431 184.407 828.879 185.737 828.826 186.982C828.773 188.226 837.506 203.243 837.2 204.471C836.894 205.7 832.507 195.577 830.419 195.088C828.33 194.599 828.093 197.833 828.881 200.47Z" fill="white"/>
<g opacity="0.3">
<path fill-rule="evenodd" clip-rule="evenodd" d="M702.79 309.076C702.79 309.076 710.989 243.552 726.215 218.774C731.657 226.603 728.349 251.692 737.765 258.659C720.933 270.457 702.79 309.076 702.79 309.076Z" fill="#867EBE" style="mix-blend-mode:multiply"/>
</g>
<defs>
<filter id="filter0_d_0_1643" x="1041" y="302" width="14" height="14" filterUnits="userSpaceOnUse" color-interpolation-filters="sRGB">
<feFlood flood-opacity="0" result="BackgroundImageFix"/>
<feColorMatrix in="SourceAlpha" type="matrix" values="0 0 0 0 0 0 0 0 0 0 0 0 0 0 0 0 0 0 127 0" result="hardAlpha"/>
<feOffset/>
<feGaussianBlur stdDeviation="3"/>
<feColorMatrix type="matrix" values="0 0 0 0 1 0 0 0 0 1 0 0 0 0 1 0 0 0 1 0"/>
<feBlend mode="normal" in2="BackgroundImageFix" result="effect1_dropShadow_0_1643"/>
<feBlend mode="normal" in="SourceGraphic" in2="effect1_dropShadow_0_1643" result="shape"/>
</filter>
<filter id="filter1_d_0_1643" x="1027" y="344" width="14" height="14" filterUnits="userSpaceOnUse" color-interpolation-filters="sRGB">
<feFlood flood-opacity="0" result="BackgroundImageFix"/>
<feColorMatrix in="SourceAlpha" type="matrix" values="0 0 0 0 0 0 0 0 0 0 0 0 0 0 0 0 0 0 127 0" result="hardAlpha"/>
<feOffset/>
<feGaussianBlur stdDeviation="3"/>
<feColorMatrix type="matrix" values="0 0 0 0 1 0 0 0 0 1 0 0 0 0 1 0 0 0 1 0"/>
<feBlend mode="normal" in2="BackgroundImageFix" result="effect1_dropShadow_0_1643"/>
<feBlend mode="normal" in="SourceGraphic" in2="effect1_dropShadow_0_1643" result="shape"/>
</filter>
<filter id="filter2_d_0_1643" x="1077" y="370" width="14" height="14" filterUnits="userSpaceOnUse" color-interpolation-filters="sRGB">
<feFlood flood-opacity="0" result="BackgroundImageFix"/>
<feColorMatrix in="SourceAlpha" type="matrix" values="0 0 0 0 0 0 0 0 0 0 0 0 0 0 0 0 0 0 127 0" result="hardAlpha"/>
<feOffset/>
<feGaussianBlur stdDeviation="3"/>
<feColorMatrix type="matrix" values="0 0 0 0 1 0 0 0 0 1 0 0 0 0 1 0 0 0 1 0"/>
<feBlend mode="normal" in2="BackgroundImageFix" result="effect1_dropShadow_0_1643"/>
<feBlend mode="normal" in="SourceGraphic" in2="effect1_dropShadow_0_1643" result="shape"/>
</filter>
<filter id="filter3_d_0_1643" x="967" y="322" width="14" height="14" filterUnits="userSpaceOnUse" color-interpolation-filters="sRGB">
<feFlood flood-opacity="0" result="BackgroundImageFix"/>
<feColorMatrix in="SourceAlpha" type="matrix" values="0 0 0 0 0 0 0 0 0 0 0 0 0 0 0 0 0 0 127 0" result="hardAlpha"/>
<feOffset/>
<feGaussianBlur stdDeviation="3"/>
<feColorMatrix type="matrix" values="0 0 0 0 1 0 0 0 0 1 0 0 0 0 1 0 0 0 1 0"/>
<feBlend mode="normal" in2="BackgroundImageFix" result="effect1_dropShadow_0_1643"/>
<feBlend mode="normal" in="SourceGraphic" in2="effect1_dropShadow_0_1643" result="shape"/>
</filter>
<filter id="filter4_d_0_1643" x="975" y="372" width="16" height="14" filterUnits="userSpaceOnUse" color-interpolation-filters="sRGB">
<feFlood flood-opacity="0" result="BackgroundImageFix"/>
<feColorMatrix in="SourceAlpha" type="matrix" values="0 0 0 0 0 0 0 0 0 0 0 0 0 0 0 0 0 0 127 0" result="hardAlpha"/>
<feOffset/>
<feGaussianBlur stdDeviation="3"/>
<feColorMatrix type="matrix" values="0 0 0 0 1 0 0 0 0 1 0 0 0 0 1 0 0 0 1 0"/>
<feBlend mode="normal" in2="BackgroundImageFix" result="effect1_dropShadow_0_1643"/>
<feBlend mode="normal" in="SourceGraphic" in2="effect1_dropShadow_0_1643" result="shape"/>
</filter>
<filter id="filter5_d_0_1643" x="1123" y="330" width="16" height="14" filterUnits="userSpaceOnUse" color-interpolation-filters="sRGB">
<feFlood flood-opacity="0" result="BackgroundImageFix"/>
<feColorMatrix in="SourceAlpha" type="matrix" values="0 0 0 0 0 0 0 0 0 0 0 0 0 0 0 0 0 0 127 0" result="hardAlpha"/>
<feOffset/>
<feGaussianBlur stdDeviation="3"/>
<feColorMatrix type="matrix" values="0 0 0 0 1 0 0 0 0 1 0 0 0 0 1 0 0 0 1 0"/>
<feBlend mode="normal" in2="BackgroundImageFix" result="effect1_dropShadow_0_1643"/>
<feBlend mode="normal" in="SourceGraphic" in2="effect1_dropShadow_0_1643" result="shape"/>
</filter>
<filter id="filter6_d_0_1643" x="1119" y="422" width="16" height="16" filterUnits="userSpaceOnUse" color-interpolation-filters="sRGB">
<feFlood flood-opacity="0" result="BackgroundImageFix"/>
<feColorMatrix in="SourceAlpha" type="matrix" values="0 0 0 0 0 0 0 0 0 0 0 0 0 0 0 0 0 0 127 0" result="hardAlpha"/>
<feOffset/>
<feGaussianBlur stdDeviation="3"/>
<feColorMatrix type="matrix" values="0 0 0 0 1 0 0 0 0 1 0 0 0 0 1 0 0 0 1 0"/>
<feBlend mode="normal" in2="BackgroundImageFix" result="effect1_dropShadow_0_1643"/>
<feBlend mode="normal" in="SourceGraphic" in2="effect1_dropShadow_0_1643" result="shape"/>
</filter>
<filter id="filter7_d_0_1643" x="925" y="346" width="16" height="16" filterUnits="userSpaceOnUse" color-interpolation-filters="sRGB">
<feFlood flood-opacity="0" result="BackgroundImageFix"/>
<feColorMatrix in="SourceAlpha" type="matrix" values="0 0 0 0 0 0 0 0 0 0 0 0 0 0 0 0 0 0 127 0" result="hardAlpha"/>
<feOffset/>
<feGaussianBlur stdDeviation="3"/>
<feColorMatrix type="matrix" values="0 0 0 0 1 0 0 0 0 1 0 0 0 0 1 0 0 0 1 0"/>
<feBlend mode="normal" in2="BackgroundImageFix" result="effect1_dropShadow_0_1643"/>
<feBlend mode="normal" in="SourceGraphic" in2="effect1_dropShadow_0_1643" result="shape"/>
</filter>
<linearGradient id="paint0_linear_0_1643" x1="471.238" y1="737.555" x2="526.404" y2="617.087" gradientUnits="userSpaceOnUse">
<stop stop-opacity="0.01"/>
<stop offset="1"/>
</linearGradient>
<linearGradient id="paint1_linear_0_1643" x1="80.2335" y1="736.555" x2="135.399" y2="616.087" gradientUnits="userSpaceOnUse">
<stop stop-opacity="0.01"/>
<stop offset="1"/>
</linearGradient>
<linearGradient id="paint2_linear_0_1643" x1="1162.65" y1="238.117" x2="869.407" y2="238.117" gradientUnits="userSpaceOnUse">
<stop stop-color="#302C48" stop-opacity="0.01"/>
<stop offset="1" stop-color="#F1FFFF"/>
</linearGradient>
<linearGradient id="paint3_linear_0_1643" x1="563.048" y1="466.996" x2="678.865" y2="491.341" gradientUnits="userSpaceOnUse">
<stop stop-color="#221F33"/>
<stop offset="1" stop-color="#1F1D2D"/>
</linearGradient>
<linearGradient id="paint4_linear_0_1643" x1="855.061" y1="271.873" x2="736.905" y2="275.304" gradientUnits="userSpaceOnUse">
<stop stop-color="#7F76A9"/>
<stop offset="1" stop-color="#484271"/>
</linearGradient>
<radialGradient id="paint5_radial_0_1643" cx="0" cy="0" r="1" gradientUnits="userSpaceOnUse" gradientTransform="translate(844.509 6.74432) rotate(136.671) scale(206.887 273.863)">
<stop stop-color="#3B394C"/>
<stop offset="1" stop-color="#1C1A25"/>
</radialGradient>
</defs>
</svg>
